<svg xmlns="http://www.w3.org/2000/svg" viewBox="0 0 900 1600">
  <defs>
    <linearGradient id="lg" x1="0%" y1="0%" x2="0%" y2="100%">
      <stop offset="0%" stop-color="#fdf3f5" />
      <stop offset="100%" stop-color="#fff" />
    </linearGradient>
  </defs>
  <rect width="900" height="1600" rx="60" fill="url(#lg)" />
  <rect x="120" y="140" width="660" height="80" rx="24" fill="#8b1a2b" opacity="0.85" />
  <rect x="120" y="260" width="400" height="40" rx="20" fill="#8b1a2b" opacity="0.35" />
  <rect x="120" y="340" width="520" height="40" rx="20" fill="#8b1a2b" opacity="0.2" />
  <g fill="#8b1a2b" opacity="0.18">
    <rect x="120" y="460" width="660" height="160" rx="28" />
    <rect x="120" y="660" width="660" height="160" rx="28" />
    <rect x="120" y="860" width="660" height="160" rx="28" />
    <rect x="120" y="1060" width="660" height="160" rx="28" />
  </g>
  <g fill="#8b1a2b" opacity="0.45">
    <rect x="160" y="520" width="260" height="26" rx="13" />
    <rect x="160" y="720" width="260" height="26" rx="13" />
    <rect x="160" y="920" width="260" height="26" rx="13" />
    <rect x="160" y="1120" width="260" height="26" rx="13" />
  </g>
</svg>
